<svg xmlns="http://www.w3.org/2000/svg" xmlns:xlink="http://www.w3.org/1999/xlink" viewBox="0 0 708.86 179.14"><defs><style>.cls-1{fill:url(#linear-gradient);}.cls-2{fill:url(#linear-gradient-2);}.cls-3{fill:#f2655d;}</style><linearGradient id="linear-gradient" x1="-182.74" y1="1319.81" x2="-77.5" y2="1425.06" gradientTransform="matrix(1, 0, 0, -1, 194, 1447.06)" gradientUnits="userSpaceOnUse"><stop offset="0" stop-color="#fff"/><stop offset="0" stop-color="#ee317b"/><stop offset="0.63" stop-color="#f15a66"/></linearGradient><linearGradient id="linear-gradient-2" x1="-103.77" y1="1402.91" x2="-55.55" y2="1451.13" xlink:href="#linear-gradient"/></defs><g id="Layer_2" data-name="Layer 2"><g id="Layer_1-2" data-name="Layer 1"><path class="cls-1" d="M145.93,53.71a5.35,5.35,0,0,0-3.81,1.59,5.48,5.48,0,0,0-1.57,3.86v49.28a5.36,5.36,0,0,1-5.4,5.4H16.22a5.38,5.38,0,0,1-5.41-5.4V16.37A5.38,5.38,0,0,1,16.22,11H59.46a5.4,5.4,0,0,0,4.7-2.72,5.33,5.33,0,0,0,0-5.39A5.44,5.44,0,0,0,59.46.16H16.22A16.23,16.23,0,0,0,0,16.33v92a16.39,16.39,0,0,0,16.37,16.37h37L50.11,141H37.84a5.42,5.42,0,0,0-4.7,2.63,5.06,5.06,0,0,0,0,5.24,5.47,5.47,0,0,0,4.7,2.63h75.68a5.42,5.42,0,0,0,4.69-2.63,5.06,5.06,0,0,0,0-5.24,5.42,5.42,0,0,0-4.69-2.63H102l-3.23-16.38h36.46a16,16,0,0,0,11.4-4.8,16.52,16.52,0,0,0,4.73-11.57V59.16a5.4,5.4,0,0,0-5.44-5.45ZM90.8,141H60.46l3.27-16.38h23.8Z"/><path class="cls-2" d="M144.75,5.69A20.8,20.8,0,0,0,130.11,0a21.12,21.12,0,0,0-14.49,6.12l-2.13,2.16-2.16-2.16a21.44,21.44,0,0,0-29.54,0,20.65,20.65,0,0,0-6.14,14.73,20.89,20.89,0,0,0,6.11,14.77l6,6h0c.12.13.27.25.4.37L109.6,63.51h0a5.25,5.25,0,0,0,3.61,1.55l.22,0h0a5.56,5.56,0,0,0,3.83-1.58l21.93-21.9,0,0,6-6h0a20.87,20.87,0,0,0,0-29.53,4.11,4.11,0,0,0-.46-.4ZM89.42,13.75a10.4,10.4,0,0,1,14.28,0l6,6h0a4.86,4.86,0,0,0,1.23.81l.56.37a5.56,5.56,0,0,0,1.24.24,3,3,0,0,0,2.19-.12,3.79,3.79,0,0,0,.62-.12A6.44,6.44,0,0,0,117,20a2,2,0,0,0,.37-.25h0l5.93-6h0a10.13,10.13,0,0,1,14.27,0,1.67,1.67,0,0,0,.34.31,10.1,10.1,0,0,1-.28,14L113.46,52.09,95.42,34c-.13-.12-.28-.24-.4-.37L89.42,28a10.11,10.11,0,0,1-3-7.14,10,10,0,0,1,3-7.1Z"/><path class="cls-3" d="M182.29,148.88A28.16,28.16,0,0,1,171.67,138a33.06,33.06,0,0,1-4.07-16.7,33,33,0,0,1,4.07-16.69,28.16,28.16,0,0,1,10.62-10.86,27.61,27.61,0,0,1,13.86-3.72q11.57,0,20.18,9V70.11a5.17,5.17,0,0,1,1.59-3.89,5.35,5.35,0,0,1,3.84-1.54,5,5,0,0,1,3.77,1.6,5.34,5.34,0,0,1,1.54,3.83v76.58a5.24,5.24,0,0,1-5.31,5.31,5.34,5.34,0,0,1-3.84-1.53,5,5,0,0,1-1.59-3.78v-3.06q-8.61,9-20.18,9A27.7,27.7,0,0,1,182.29,148.88Zm25.6-8.74a29,29,0,0,0,8.44-6.43V108.93a29.34,29.34,0,0,0-8.44-6.43,22.3,22.3,0,0,0-10.2-2.42q-8.74,0-14.05,5.55t-5.31,15.69q0,10.16,5.31,15.7t14.05,5.54A22.18,22.18,0,0,0,207.89,140.14Z"/><path class="cls-3" d="M253.79,144.39q-8.08-8.19-8.08-23.07a38.36,38.36,0,0,1,3.07-15.45,26.23,26.23,0,0,1,9.44-11.45q6.38-4.36,15.69-4.37A27.51,27.51,0,0,1,289,94.12,26.42,26.42,0,0,1,298.69,105,33.43,33.43,0,0,1,302,119.79a5.16,5.16,0,0,1-5.43,5.31h-40q.94,8.27,6.13,12.86t14.52,4.6a35.46,35.46,0,0,0,8.67-.94,36,36,0,0,0,7.26-2.71,4.59,4.59,0,0,1,2.12-.48,4.78,4.78,0,0,1,3.31,1.3A4.31,4.31,0,0,1,300,143q0,2.6-3.07,4.36a36.66,36.66,0,0,1-20.65,5.19Q261.87,152.59,253.79,144.39Zm37.59-28a19,19,0,0,0-3-9.68,16.26,16.26,0,0,0-6.55-5.72A18,18,0,0,0,266,101a15.86,15.86,0,0,0-6.49,5.72,19.22,19.22,0,0,0-2.95,9.68Z"/><path class="cls-3" d="M336.69,150.77a7.41,7.41,0,0,1-2.6-3.13L313.56,98.55a6.65,6.65,0,0,1-.59-2.48,5.33,5.33,0,0,1,1.53-3.83,5.08,5.08,0,0,1,3.78-1.6,5.55,5.55,0,0,1,4.84,3.07l18.05,45.79,18.06-45.79a5.16,5.16,0,0,1,1.94-2.18,5.23,5.23,0,0,1,2.9-.89,5,5,0,0,1,3.77,1.6,5.34,5.34,0,0,1,1.54,3.83,6.65,6.65,0,0,1-.59,2.48l-20.54,49.09a7.38,7.38,0,0,1-2.59,3.13,6.69,6.69,0,0,1-3.9,1.23h-1.18A6.68,6.68,0,0,1,336.69,150.77Z"/><path class="cls-3" d="M385.42,146.93a5.33,5.33,0,0,1-2.36-2,5,5,0,0,1,.42-6.37,4.51,4.51,0,0,1,3.48-1.47,5.39,5.39,0,0,1,2.24.47,56.57,56.57,0,0,0,23.25,4.84q20.64,0,20.65-13.57a7.57,7.57,0,0,0-2.66-5.9,19.05,19.05,0,0,0-6.55-3.72Q420,117.91,412.8,116a140.2,140.2,0,0,1-15.46-4.78,27,27,0,0,1-10.15-6.9q-4.24-4.6-4.24-12.27a22,22,0,0,1,3.54-12.21,24.3,24.3,0,0,1,10.44-8.73,38.61,38.61,0,0,1,16.58-3.25A67.28,67.28,0,0,1,437,71.76a4.6,4.6,0,0,1,3.3,4.72A5.22,5.22,0,0,1,439,79.91a4.28,4.28,0,0,1-3.43,1.53,5.48,5.48,0,0,1-1.88-.47,57.55,57.55,0,0,0-19-3.19q-9.33,0-15.17,3.54t-5.84,9.91a9.13,9.13,0,0,0,2.78,6.91,19,19,0,0,0,7,4.13,110.27,110.27,0,0,0,11.39,3.12,118.81,118.81,0,0,1,15,4.49,24.47,24.47,0,0,1,9.79,7q4.08,4.72,4.08,12.74a19.79,19.79,0,0,1-3.78,11.86,24.77,24.77,0,0,1-10.62,8.2,39.57,39.57,0,0,1-15.81,3A70,70,0,0,1,385.42,146.93Z"/><path class="cls-3" d="M462.36,177.55a5.33,5.33,0,0,1-1.53-3.83V96a5.24,5.24,0,0,1,5.3-5.31A5.35,5.35,0,0,1,470,92.18,5,5,0,0,1,471.56,96V99q8.61-9,20.18-9a27.67,27.67,0,0,1,13.87,3.72,28.3,28.3,0,0,1,10.62,10.86,33.15,33.15,0,0,1,4.07,16.69,33.16,33.16,0,0,1-4.07,16.7,28.3,28.3,0,0,1-10.62,10.86,27.76,27.76,0,0,1-13.87,3.71q-11.57,0-20.18-9v30.09a5.24,5.24,0,0,1-5.43,5.42A5,5,0,0,1,462.36,177.55ZM504.25,137q5.31-5.55,5.31-15.7t-5.31-15.69q-5.31-5.55-14-5.55A22.34,22.34,0,0,0,480,102.5a29.34,29.34,0,0,0-8.44,6.43v24.78a29,29,0,0,0,8.44,6.43,22.22,22.22,0,0,0,10.21,2.42Q498.94,142.56,504.25,137Z"/><path class="cls-3" d="M544.66,150.47a16.74,16.74,0,0,1-7-6.2,17.06,17.06,0,0,1-2.59-9.38A16.53,16.53,0,0,1,542,121q6.9-5.19,20.24-5.19h14.27v-1q0-7.78-3.83-11.21t-12-3.42a40.31,40.31,0,0,0-8,.71A67.1,67.1,0,0,0,545,103a6.53,6.53,0,0,1-1.54.24,4.17,4.17,0,0,1-3.06-1.3,4.29,4.29,0,0,1-1.3-3.18,4.55,4.55,0,0,1,3.07-4.49,51.9,51.9,0,0,1,20.41-4.25,26.69,26.69,0,0,1,13.75,3.31,20.79,20.79,0,0,1,8.26,8.55,24.88,24.88,0,0,1,2.65,11.39v33.39a5,5,0,0,1-1.59,3.78,5.33,5.33,0,0,1-3.83,1.53,5.24,5.24,0,0,1-5.32-5.31v-3.06q-8.73,9-22.18,9A21.89,21.89,0,0,1,544.66,150.47Zm23.66-9.85a27.73,27.73,0,0,0,8.14-6.32v-9.91H563.6q-17.82,0-17.81,9.32a8.75,8.75,0,0,0,2.89,6.85q2.88,2.59,9.61,2.59A21.33,21.33,0,0,0,568.32,140.62Z"/><path class="cls-3" d="M610.45,150.47a5.14,5.14,0,0,1-1.53-3.78V96.07a5.33,5.33,0,0,1,1.53-3.83,5,5,0,0,1,3.77-1.6,5.45,5.45,0,0,1,5.43,5.43v5.08q8.26-11.1,18.53-11.1h.59a5,5,0,0,1,3.72,1.54A5.24,5.24,0,0,1,644,95.36,4.75,4.75,0,0,1,642.43,99a5.51,5.51,0,0,1-3.9,1.42h-.59a20.09,20.09,0,0,0-10.38,2.77,24,24,0,0,0-7.91,7.61v35.87a5,5,0,0,1-1.59,3.78,5.34,5.34,0,0,1-3.84,1.53A5.13,5.13,0,0,1,610.45,150.47Z"/><path class="cls-3" d="M659.3,150.47a5.14,5.14,0,0,1-1.53-3.78V70.11a5.33,5.33,0,0,1,1.53-3.83,5,5,0,0,1,3.78-1.6,5.45,5.45,0,0,1,5.42,5.43v48.26l28.09-26a5.44,5.44,0,0,1,3.54-1.53,4.79,4.79,0,0,1,4,1.53,5.65,5.65,0,0,1,1.24,3.66,5.75,5.75,0,0,1-2,4l-17,15.23,21.36,28.32a5.13,5.13,0,0,1,1.18,3.18,4.91,4.91,0,0,1-1.53,3.78,5.56,5.56,0,0,1-3.9,1.41,5.18,5.18,0,0,1-2.36-.59,5.77,5.77,0,0,1-2-1.65l-20.3-27.61-10.27,9.32v15.22a5,5,0,0,1-1.59,3.78,5.33,5.33,0,0,1-3.83,1.53A5.14,5.14,0,0,1,659.3,150.47Z"/></g></g></svg>