<?xml version="1.0" encoding="utf-8"?>
<!-- Generator: Adobe Illustrator 26.0.2, SVG Export Plug-In . SVG Version: 6.00 Build 0)  -->
<svg version="1.1" id="Layer_1" xmlns="http://www.w3.org/2000/svg" xmlns:xlink="http://www.w3.org/1999/xlink" x="0px" y="0px"
	 viewBox="0 0 700 700" style="enable-background:new 0 0 700 700;" xml:space="preserve">
<style type="text/css">
	.st0{fill-rule:evenodd;clip-rule:evenodd;fill:#FFFFFF;}
</style>
<g>
	<path class="st0" d="M537.6,134.4H169.5c-12.7,0-23-10.3-23-23c0-12.7,10.3-23,23-23h368.1c12.7,0,23,10.3,23,23
		C560.6,124.1,550.3,134.4,537.6,134.4"/>
	<path class="st0" d="M537.6,295.4H169.5c-12.7,0-23-10.3-23-23c0-12.7,10.3-23,23-23h368.1c12.7,0,23,10.3,23,23
		C560.6,285.1,550.3,295.4,537.6,295.4"/>
	<path class="st0" d="M537.6,456.5H169.5c-12.7,0-23-10.3-23-23c0-12.7,10.3-23,23-23h368.1c12.7,0,23,10.3,23,23
		C560.6,446.2,550.3,456.5,537.6,456.5"/>
</g>
</svg>
