<?xml version="1.0" encoding="utf-8"?>
<!-- Generator: Adobe Illustrator 26.0.2, SVG Export Plug-In . SVG Version: 6.00 Build 0)  -->
<svg version="1.1" id="Layer_1" xmlns="http://www.w3.org/2000/svg" xmlns:xlink="http://www.w3.org/1999/xlink" x="0px" y="0px"
	 viewBox="0 0 700 700" style="enable-background:new 0 0 700 700;" xml:space="preserve">
<style type="text/css">
	.st0{fill:#FD287C;}
</style>
<g>
	<path class="st0" d="M471.9,303.7l-17,23.1c-1.7,2.3-1.2,5.7,1.1,7.4c2.4,1.7,5.7,1.2,7.4-1.1l17-23.1c1.7-2.3,1.2-5.7-1.1-7.4
		C476.9,300.9,473.6,301.4,471.9,303.7z"/>
	<path class="st0" d="M255.6,420.8c1.3,3,5.2,4.3,8,2.2c1.1-0.8,70.2-54.6,69.1-54l65.5,43.9c2.3,1.6,5.5,1,7.2-1.3l38.3-52
		c1.7-2.3,1.2-5.7-1.1-7.4c-2.3-1.7-5.7-1.2-7.4,1.1l-35.3,47.9L264,310.2l317.3-154.8l-93.6,126.8c-1.7,2.3-1.2,5.7,1.1,7.4
		c2.4,1.7,5.7,1.2,7.4-1.1c0.8-1.1,107.1-145.4,106.4-144.3c2.5-3.7-0.5-8.7-5-8.1c-1.1,0.2-495.6,79.3-496.7,79.5
		c-2.2,0.4-3.9,2-4.4,4.2c-0.4,2.2,0.6,4.4,2.5,5.5l99.1,59.2L255.6,420.8z M323.5,362.8l-58.4,45.7l-5.7-88.6L323.5,362.8z
		 M251.1,304.7C251.1,304.7,251.1,304.8,251.1,304.7c-1.8,0.9-3.1,3.2-3,5.1l5,78.1l-43.8-104l304.1-107.2L251.1,304.7z
		 M541.4,155.7L202.9,275l-86-51.3L541.4,155.7z"/>
</g>
</svg>
