<?xml version="1.0" encoding="utf-8"?>
<!-- Generator: Adobe Illustrator 26.0.2, SVG Export Plug-In . SVG Version: 6.00 Build 0)  -->
<svg version="1.1" id="Layer_1" xmlns="http://www.w3.org/2000/svg" xmlns:xlink="http://www.w3.org/1999/xlink" x="0px" y="0px"
	 viewBox="0 0 700 700" style="enable-background:new 0 0 700 700;" xml:space="preserve">
<style type="text/css">
	.st0{fill:#FF7654;}
</style>
<g>
	<path class="st0" d="M482.6,346.3c0-3.1-1-6.1-2.8-8.6c-1.8-2.5-4.3-4.4-7.3-5.4l-131.2-44.2l-44.2-131.2c-1.3-4-4.2-7.2-8-8.9
		c-3.8-1.7-8.2-1.7-12,0c-3.8,1.7-6.7,4.9-8,8.9L225,288.1L93.9,332.3c-4,1.3-7.2,4.2-8.9,8c-1.7,3.8-1.7,8.2,0,12
		c1.7,3.8,4.9,6.7,8.9,8L225,404.5l44.2,131.2c1.3,4,4.2,7.2,8,8.9c3.8,1.7,8.2,1.7,12,0c3.8-1.7,6.7-4.9,8-8.9l44.2-131.2
		l131.2-44.2c2.9-1,5.5-2.9,7.3-5.4C481.7,352.4,482.6,349.4,482.6,346.3L482.6,346.3z"/>
	<path class="st0" d="M605.2,140.7l-86.9-29.5l-29.5-86.9c-1.3-4-4.2-7.2-8-8.9c-3.8-1.7-8.2-1.7-12,0c-3.8,1.7-6.7,4.9-8,8.9
		l-29.5,86.9l-86.9,29.5c-4,1.3-7.2,4.2-8.9,8c-1.7,3.8-1.7,8.2,0,12c1.7,3.8,4.9,6.7,8.9,8l86.9,29.5l29.5,86.9v0
		c1.3,4,4.2,7.2,8,8.9c3.8,1.7,8.1,1.7,12,0c3.8-1.7,6.7-4.9,8-8.9l29.5-86.9l86.9-29.5v0c4-1.3,7.2-4.2,8.9-8c1.7-3.8,1.7-8.1,0-12
		C612.4,145,609.2,142,605.2,140.7L605.2,140.7z"/>
	<path class="st0" d="M497.4,456.8c3.9,0,7.7-1.6,10.4-4.3c2.8-2.8,4.3-6.5,4.3-10.4v-29.5c0-5.3-2.8-10.1-7.4-12.8
		c-4.6-2.6-10.2-2.6-14.7,0c-4.6,2.6-7.4,7.5-7.4,12.8v29.5c0,3.9,1.6,7.7,4.3,10.4C489.7,455.3,493.5,456.8,497.4,456.8
		L497.4,456.8z"/>
	<path class="st0" d="M556.3,456.8h-29.5c-5.3,0-10.1,2.8-12.8,7.4c-2.6,4.6-2.6,10.2,0,14.7c2.6,4.6,7.5,7.4,12.8,7.4h29.5
		c5.3,0,10.1-2.8,12.8-7.4c2.6-4.6,2.6-10.2,0-14.7C566.4,459.6,561.6,456.8,556.3,456.8z"/>
	<path class="st0" d="M497.4,486.3c-3.9,0-7.7,1.6-10.4,4.3c-2.8,2.8-4.3,6.5-4.3,10.4v29.5c0,5.3,2.8,10.1,7.4,12.8
		c4.6,2.6,10.2,2.6,14.7,0c4.6-2.6,7.4-7.5,7.4-12.8v-29.5c0-3.9-1.6-7.7-4.3-10.4C505,487.9,501.3,486.3,497.4,486.3L497.4,486.3z"
		/>
	<path class="st0" d="M467.9,456.8h-29.5c-5.3,0-10.1,2.8-12.8,7.4c-2.6,4.6-2.6,10.2,0,14.7c2.6,4.6,7.5,7.4,12.8,7.4h29.5
		c5.3,0,10.1-2.8,12.8-7.4c2.6-4.6,2.6-10.2,0-14.7C478,459.6,473.2,456.8,467.9,456.8z"/>
	<path class="st0" d="M158.4,117.9c3.9,0,7.7-1.6,10.4-4.3c2.8-2.8,4.3-6.5,4.3-10.4V73.7c0-5.3-2.8-10.1-7.4-12.8
		c-4.6-2.6-10.2-2.6-14.7,0c-4.6,2.6-7.4,7.5-7.4,12.8v29.5c0,3.9,1.6,7.7,4.3,10.4C150.8,116.3,154.5,117.9,158.4,117.9
		L158.4,117.9z"/>
	<path class="st0" d="M187.9,147.4h29.5c5.3,0,10.1-2.8,12.8-7.4c2.6-4.6,2.6-10.2,0-14.7c-2.6-4.6-7.5-7.4-12.8-7.4h-29.5
		c-5.3,0-10.1,2.8-12.8,7.4c-2.6,4.6-2.6,10.2,0,14.7C177.8,144.6,182.6,147.4,187.9,147.4L187.9,147.4z"/>
	<path class="st0" d="M158.4,147.4c-3.9,0-7.7,1.6-10.4,4.3c-2.8,2.8-4.3,6.5-4.3,10.4v29.5c0,5.3,2.8,10.1,7.4,12.8
		c4.6,2.6,10.2,2.6,14.7,0c4.6-2.6,7.4-7.5,7.4-12.8v-29.5c0-3.9-1.6-7.7-4.3-10.4C166.1,148.9,162.3,147.4,158.4,147.4L158.4,147.4
		z"/>
	<path class="st0" d="M99.5,147.4h29.5c5.3,0,10.1-2.8,12.8-7.4c2.6-4.6,2.6-10.2,0-14.7c-2.6-4.6-7.5-7.4-12.8-7.4H99.5
		c-5.3,0-10.1,2.8-12.8,7.4c-2.6,4.6-2.6,10.2,0,14.7C89.3,144.6,94.2,147.4,99.5,147.4z"/>
</g>
</svg>
